<svg width="7437" height="1214" viewBox="0 0 7437 1214" fill="none" xmlns="http://www.w3.org/2000/svg">
<path fill-rule="evenodd" clip-rule="evenodd" d="M859.906 229.435C861.861 229.435 863.454 227.849 863.375 225.896C862.959 215.481 860.705 205.213 856.709 195.566C852.262 184.829 845.743 175.072 837.524 166.854C829.306 158.636 819.55 152.117 808.812 147.669C799.166 143.673 788.897 141.42 778.483 141.003C776.529 140.925 774.943 142.517 774.943 144.472L774.943 225.895C774.943 227.85 776.528 229.435 778.483 229.435H859.906ZM892.138 340.441C890.183 340.441 888.591 342.027 888.669 343.98C889.086 354.395 891.339 364.663 895.335 374.31C899.783 385.047 906.302 394.804 914.52 403.022C922.738 411.24 932.495 417.759 943.232 422.207C952.879 426.203 963.147 428.456 973.562 428.873C975.515 428.951 977.101 427.359 977.101 425.404V343.981C977.101 342.026 975.516 340.441 973.561 340.441H892.138ZM892.014 317.867C890.06 317.945 888.475 316.353 888.475 314.398V229.435V144.472C888.475 142.517 890.06 140.925 892.014 141.003C902.428 141.42 912.697 143.673 922.343 147.669C933.081 152.117 942.837 158.636 951.056 166.854C959.274 175.072 965.793 184.829 970.241 195.566C974.688 206.304 976.977 217.812 976.977 229.435C976.977 241.057 974.688 252.566 970.241 263.303C965.793 274.041 959.274 283.797 951.056 292.016C942.837 300.234 933.081 306.753 922.343 311.201C912.697 315.196 902.428 317.45 892.014 317.867ZM863.557 428.172C863.557 430.127 861.971 431.72 860.017 431.642C849.603 431.225 839.335 428.971 829.688 424.975C818.95 420.528 809.194 414.009 800.976 405.79C792.757 397.572 786.238 387.816 781.791 377.078C777.343 366.34 775.054 354.832 775.054 343.21C775.054 331.587 777.343 320.079 781.791 309.341C786.238 298.603 792.757 288.847 800.976 280.629C809.194 272.41 818.95 265.891 829.688 261.444C839.335 257.448 849.603 255.194 860.017 254.778C861.971 254.699 863.557 256.292 863.557 258.247V343.21V428.172ZM2947.32 751.858C2947.32 753.813 2945.73 755.406 2943.78 755.327C2933.36 754.911 2923.09 752.657 2913.45 748.661C2902.71 744.214 2892.95 737.695 2884.74 729.476C2876.52 721.258 2870 711.502 2865.55 700.764C2861.1 690.026 2858.81 678.518 2858.81 666.895C2858.81 655.273 2861.1 643.765 2865.55 633.027C2870 622.289 2876.52 612.533 2884.74 604.315C2892.95 596.096 2902.71 589.577 2913.45 585.13C2915.18 584.414 2916.92 583.754 2918.69 583.151L2859.52 523.753L2858.83 278.852H2888.88L3388.35 779.016L3390.43 449.488L3583.86 256.054V1063.64H3397.33L3060.86 725.874V749.09C3060.86 751.045 3059.28 752.637 3057.32 752.559C3046.91 752.142 3036.64 749.889 3027 745.893C3016.26 741.445 3006.5 734.926 2998.28 726.708C2990.06 718.49 2983.55 708.733 2979.1 697.996C2975.1 688.349 2972.85 678.081 2972.43 667.666C2972.35 665.713 2973.95 664.127 2975.9 664.127H2999.35L2947.32 611.889V666.895V751.858ZM2943.78 864.178C2945.73 864.178 2947.32 862.593 2947.25 860.639C2946.83 850.225 2944.58 839.956 2940.58 830.31C2936.13 819.572 2929.61 809.816 2921.39 801.597C2913.18 793.379 2903.42 786.86 2892.68 782.412C2883.04 778.417 2872.77 776.163 2862.35 775.746C2860.4 775.668 2858.81 777.26 2858.81 779.216V860.638C2858.81 862.593 2860.4 864.178 2862.35 864.178H2943.78ZM2976.01 975.179C2974.05 975.179 2972.46 976.765 2972.54 978.718C2972.95 989.133 2975.21 999.401 2979.2 1009.05C2983.65 1019.79 2990.17 1029.54 2998.39 1037.76C3006.61 1045.98 3016.36 1052.5 3027.1 1056.95C3036.75 1060.94 3047.02 1063.19 3057.43 1063.61C3059.38 1063.69 3060.97 1062.1 3060.97 1060.14V978.719C3060.97 976.764 3059.39 975.179 3057.43 975.179H2976.01ZM2972.34 949.141C2972.34 951.096 2973.93 952.688 2975.88 952.61C2986.3 952.194 2996.56 949.94 3006.21 945.944C3016.95 941.497 3026.7 934.977 3034.92 926.759C3043.14 918.541 3049.66 908.784 3054.11 898.047C3058.56 887.309 3060.84 875.801 3060.84 864.178C3060.84 852.556 3058.56 841.047 3054.11 830.31C3049.66 819.572 3043.14 809.816 3034.92 801.597C3026.7 793.379 3016.95 786.86 3006.21 782.412C2996.56 778.417 2986.3 776.163 2975.88 775.746C2973.93 775.668 2972.34 777.26 2972.34 779.216V864.178V949.141ZM2943.88 1066.38C2945.84 1066.46 2947.42 1064.87 2947.42 1062.91V977.947V892.985C2947.42 891.03 2945.84 889.437 2943.88 889.515C2933.47 889.932 2923.2 892.186 2913.55 896.182C2902.82 900.629 2893.06 907.148 2884.84 915.367C2876.62 923.585 2870.11 933.341 2865.66 944.079C2861.21 954.817 2858.92 966.325 2858.92 977.947C2858.92 989.57 2861.21 1001.08 2865.66 1011.82C2870.11 1022.55 2876.62 1032.31 2884.84 1040.53C2893.06 1048.75 2902.82 1055.27 2913.55 1059.71C2923.2 1063.71 2933.47 1065.96 2943.88 1066.38ZM977.357 648.447L774.942 448.105V1065.71H977.357V648.447ZM6280.77 711.731V890.065C6280.77 980.881 6207.14 1054.5 6116.33 1054.5V461.6H6168.44C6226.21 461.6 6273.05 508.434 6273.05 566.207H6279.99C6293.12 531.724 6315.12 504.447 6346 484.374C6376.88 464.045 6414.32 453.88 6458.33 453.88C6499.5 453.88 6535.4 462.887 6566.02 480.9C6596.65 498.914 6620.45 524.647 6637.43 558.101C6654.42 591.298 6662.91 630.927 6662.91 676.99V1054.5C6572.09 1054.5 6498.47 980.881 6498.47 890.065V706.327C6498.73 670.042 6489.47 641.735 6470.68 621.406C6451.89 600.819 6426.03 590.526 6393.09 590.526C6370.96 590.526 6351.4 595.286 6334.42 604.808C6317.69 614.329 6304.57 628.225 6295.05 646.496C6285.78 664.51 6281.02 686.255 6280.77 711.731ZM5562.03 1027.87C5605.77 1053.34 5657.63 1066.08 5717.59 1066.08C5777.55 1066.08 5829.27 1053.34 5872.76 1027.87C5916.51 1002.13 5950.22 966.365 5973.89 920.559C5997.57 874.496 6009.41 821.099 6009.41 760.367C6009.41 699.121 5997.57 645.595 5973.89 599.79C5950.22 553.726 5916.51 517.957 5872.76 492.48C5829.27 466.747 5777.55 453.88 5717.59 453.88C5657.63 453.88 5605.77 466.747 5562.03 492.48C5518.54 517.957 5484.95 553.726 5461.28 599.79C5437.61 645.595 5425.77 699.121 5425.77 760.367C5425.77 821.099 5437.61 874.496 5461.28 920.559C5484.95 966.365 5518.54 1002.13 5562.03 1027.87ZM5786.68 915.541C5768.41 930.981 5745.64 938.701 5718.36 938.701C5690.82 938.701 5667.66 930.981 5648.88 915.541C5630.35 899.844 5616.33 878.485 5606.8 851.464C5597.54 824.444 5592.91 793.692 5592.91 759.209C5592.91 724.726 5597.54 693.975 5606.8 666.954C5616.33 639.934 5630.35 618.575 5648.88 602.878C5667.66 587.18 5690.82 579.331 5718.36 579.331C5745.64 579.331 5768.41 587.18 5786.68 602.878C5804.95 618.575 5818.72 639.934 5827.98 666.954C5837.51 693.975 5842.27 724.726 5842.27 759.209C5842.27 793.692 5837.51 824.444 5827.98 851.464C5818.72 878.485 5804.95 899.844 5786.68 915.541ZM5032.52 1054.5V461.599H5191.94V565.048H5198.12C5208.93 528.249 5227.07 500.457 5252.55 481.671C5278.02 462.629 5307.36 453.107 5340.56 453.107C5348.79 453.107 5357.67 453.622 5367.19 454.651C5382.07 456.26 5392.28 469.397 5392.28 484.364V604.807C5384.56 602.491 5373.88 600.432 5360.24 598.631C5346.6 596.829 5334.12 595.929 5322.8 595.929C5298.61 595.929 5276.99 601.204 5257.95 611.755C5239.17 622.048 5224.24 636.459 5213.17 654.987C5202.37 673.516 5196.96 694.874 5196.96 719.064V890.064C5196.96 980.88 5123.34 1054.5 5032.52 1054.5ZM4736.56 626.036V802.054C4736.81 828.56 4731.54 850.82 4720.73 868.833C4710.18 886.847 4696.28 900.485 4679.04 909.75C4661.8 918.756 4643.27 923.26 4623.46 923.26C4592.32 923.26 4567.49 913.095 4548.96 892.765C4530.43 872.436 4521.04 844.772 4520.78 809.774V626.036C4520.78 535.22 4447.16 461.599 4356.34 461.599V839.111C4356.6 885.431 4365.09 925.19 4381.82 958.386C4398.8 991.582 4422.35 1017.19 4452.46 1035.2C4482.56 1053.21 4517.43 1062.22 4557.06 1062.22C4601.58 1062.22 4639.28 1051.67 4670.16 1030.57C4701.3 1009.47 4723.56 981.546 4736.94 946.806H4743.12C4743.12 1006.28 4791.33 1054.5 4850.81 1054.5H4900.99V461.599C4810.18 461.599 4736.56 535.22 4736.56 626.036ZM3976.9 1066.08C3915.91 1066.08 3863.41 1053.73 3819.41 1029.03C3775.66 1004.06 3741.95 968.81 3718.28 923.261C3694.6 877.455 3682.76 823.286 3682.76 760.753C3682.76 699.765 3694.6 646.239 3718.28 600.176C3741.95 554.113 3775.28 518.214 3818.25 492.48C3861.48 466.747 3912.18 453.88 3970.34 453.88C4009.45 453.88 4045.87 460.185 4079.58 472.794C4113.54 485.146 4143.14 503.803 4168.36 528.765C4193.83 553.726 4213.65 585.121 4227.8 622.95C4241.96 660.521 4249.03 704.525 4249.03 754.963C4249.03 779.906 4228.81 800.126 4203.87 800.126H3845.27V800.512C3845.27 829.848 3850.68 855.196 3861.48 876.555C3872.55 897.914 3888.12 914.383 3908.19 925.963C3928.26 937.543 3952.07 943.333 3979.6 943.333C3997.87 943.333 4014.6 940.76 4029.78 935.613C4044.96 930.467 4057.96 922.747 4068.77 912.453C4088.37 893.781 4111.92 875.842 4138.94 877.625L4245.56 884.661C4237.84 921.203 4222.01 953.112 4198.08 980.39C4174.4 1007.41 4143.78 1028.51 4106.21 1043.69C4068.9 1058.62 4025.79 1066.08 3976.9 1066.08ZM4028.73 698.221H3845.43C3846.42 676.93 3851.9 657.501 3861.87 639.934C3872.68 620.634 3887.6 605.322 3906.65 594C3925.95 582.419 3948.08 576.629 3973.04 576.629C3996.97 576.629 4017.94 581.905 4035.96 592.456C4054.23 602.749 4068.51 617.031 4078.8 635.302C4096.57 666.827 4064.91 698.221 4028.73 698.221ZM2358.7 1054.55C2385.64 1066.5 2416.32 1072.47 2450.74 1072.47C2477.44 1072.47 2500.98 1068.95 2521.35 1061.93C2541.73 1054.67 2559.17 1044.72 2573.69 1032.07C2588.21 1019.19 2599.81 1004.32 2608.47 987.456H2612.69C2612.69 1028.78 2646.19 1062.28 2687.51 1062.28H2754.61V698.345C2754.61 666.26 2748.4 638.743 2735.99 615.792C2723.58 592.607 2706.6 573.637 2685.05 558.883C2663.74 544.129 2639.27 533.239 2611.63 526.213C2584.23 519.187 2555.54 515.674 2525.57 515.674C2482.47 515.674 2444.54 522.232 2411.75 535.347C2379.2 548.227 2352.61 566.728 2332.01 590.85C2311.4 614.738 2297.58 643.075 2290.55 675.862L2373.72 682.617C2403.61 685.045 2430.55 665.082 2455.07 646.909C2456.92 645.539 2458.76 644.18 2460.58 642.841C2476.5 630.897 2497.93 624.925 2524.86 624.925C2550.39 624.925 2570.06 631.014 2583.88 643.192C2597.93 655.37 2604.96 672.584 2604.96 694.832V696.94C2604.96 708.415 2600.62 717.08 2591.96 722.935C2583.29 728.79 2569.36 733.239 2550.16 736.284C2530.95 739.094 2505.66 742.139 2474.28 745.417C2447.58 747.994 2422.05 752.443 2397.7 758.766C2373.57 765.09 2352.03 774.457 2333.06 786.87C2314.09 799.282 2299.1 815.675 2288.09 836.05C2277.09 856.425 2271.58 881.601 2271.58 911.577C2271.58 947.174 2279.31 976.917 2294.77 1000.8C2310.46 1024.46 2331.77 1042.37 2358.7 1054.55ZM2551.91 956.191C2535.05 964.856 2515.61 969.189 2493.6 969.189C2470.65 969.189 2451.68 963.919 2436.69 953.381C2421.94 942.608 2414.56 927.034 2414.56 906.659C2414.56 892.608 2418.19 880.898 2425.45 871.53C2432.71 861.928 2442.9 854.317 2456.01 848.696C2469.13 843.076 2484.47 838.977 2502.03 836.401C2510.23 835.23 2519.36 833.942 2529.43 832.537C2539.5 830.898 2549.57 829.141 2559.64 827.268C2569.71 825.16 2578.73 822.935 2586.69 820.593C2594.89 818.017 2601.33 815.207 2606.01 812.162V869.422C2606.01 888.392 2601.21 905.371 2591.61 920.359C2582.01 935.348 2568.77 947.292 2551.91 956.191ZM1951.56 1072.82C1896.06 1072.82 1848.28 1061.58 1808.23 1039.1C1768.42 1016.38 1737.74 984.294 1716.2 942.842C1694.65 901.156 1683.88 851.858 1683.88 794.949C1683.88 739.446 1694.65 690.734 1716.2 648.813C1737.74 606.893 1768.07 574.223 1807.18 550.803C1846.53 527.384 1892.66 515.674 1945.59 515.674C1981.19 515.674 2014.32 521.412 2045 532.888C2075.92 544.129 2102.85 561.108 2125.8 583.825C2148.98 606.541 2167.02 635.113 2179.9 669.539C2192.78 703.731 2199.22 743.778 2199.22 789.68V830.781H1831.77V831.132C1831.77 857.83 1836.69 880.898 1846.53 900.336C1856.6 919.774 1870.76 934.762 1889.03 945.301C1907.3 955.84 1928.96 961.109 1954.02 961.109C1970.65 961.109 1985.87 958.767 1999.69 954.083C2013.5 949.399 2025.33 942.373 2035.17 933.006C2053.01 916.013 2074.44 899.688 2099.03 901.31L2196.06 907.713C2189.03 940.968 2174.63 970.008 2152.85 994.833C2131.3 1019.42 2103.43 1038.63 2069.24 1052.44C2035.28 1066.03 1996.06 1072.82 1951.56 1072.82ZM1831.91 738.04H1998.73C2031.66 738.04 2060.46 709.47 2044.3 680.78C2034.93 664.153 2021.94 651.155 2005.31 641.787C1988.91 632.185 1969.83 627.384 1948.05 627.384C1925.33 627.384 1905.19 632.654 1887.63 643.192C1870.3 653.497 1856.71 667.431 1846.88 684.996C1837.8 700.983 1832.81 718.665 1831.91 738.04ZM1164.23 1039.45C1197.49 1060.52 1234.61 1071.06 1275.59 1071.06C1304.63 1071.06 1329.22 1066.26 1349.36 1056.66C1369.74 1047.06 1386.25 1035 1398.9 1020.48C1411.78 1005.72 1421.73 990.853 1428.75 975.864H1435.08C1435.08 1023.59 1473.77 1062.28 1521.5 1062.28H1582.62V342.842C1500.16 342.842 1433.32 409.684 1433.32 492.139V613.334H1428.75C1422.2 598.814 1412.6 584.06 1399.95 569.072C1387.54 553.849 1371.14 541.203 1350.77 531.132C1330.63 520.828 1305.45 515.676 1275.24 515.676C1235.66 515.676 1199.25 525.98 1165.99 546.589C1132.97 566.964 1106.51 597.76 1086.6 638.978C1066.69 679.962 1056.74 731.367 1056.74 793.194C1056.74 853.381 1066.34 904.201 1085.55 945.653C1104.98 986.871 1131.21 1018.14 1164.23 1039.45ZM1384.14 932.304C1367.51 945.419 1347.14 951.977 1323.02 951.977C1298.43 951.977 1277.7 945.302 1260.84 931.953C1244.21 918.37 1231.45 899.635 1222.55 875.747C1213.88 851.625 1209.55 823.873 1209.55 792.491C1209.55 761.344 1213.88 733.943 1222.55 710.29C1231.21 686.636 1243.98 668.135 1260.84 654.786C1277.7 641.437 1298.43 634.763 1323.02 634.763C1347.14 634.763 1367.63 641.203 1384.49 654.084C1401.35 666.964 1414.23 685.231 1423.13 708.885C1432.03 732.538 1436.48 760.407 1436.48 792.491C1436.48 824.576 1431.92 852.562 1422.78 876.449C1413.88 900.337 1401 918.955 1384.14 932.304Z" fill="white"/>
</svg>
